<?xml version="1.0" encoding="UTF-8" standalone="no"?>
<svg
   id="Bold"
   viewBox="0 0 24 24"
   width="512"
   height="512"
   version="1.1"
   sodipodi:docname="crown.svg"
   inkscape:version="1.3.2 (091e20e, 2023-11-25, custom)"
   xmlns:inkscape="http://www.inkscape.org/namespaces/inkscape"
   xmlns:sodipodi="http://sodipodi.sourceforge.net/DTD/sodipodi-0.dtd"
   xmlns="http://www.w3.org/2000/svg"
   xmlns:svg="http://www.w3.org/2000/svg">
  <defs
     id="defs1" />
  <sodipodi:namedview
     id="namedview1"
     pagecolor="#ffffff"
     bordercolor="#111111"
     borderopacity="1"
     inkscape:showpageshadow="0"
     inkscape:pageopacity="0"
     inkscape:pagecheckerboard="1"
     inkscape:deskcolor="#d1d1d1"
     inkscape:zoom="2.2910156"
     inkscape:cx="256"
     inkscape:cy="256"
     inkscape:window-width="2560"
     inkscape:window-height="1369"
     inkscape:window-x="-8"
     inkscape:window-y="-8"
     inkscape:window-maximized="1"
     inkscape:current-layer="Bold" />
  <path
     d="M23.074,3.842a1.5,1.5,0,0,0-1.635.325L17.728,7.879,13.061,3.212a1.5,1.5,0,0,0-2.122,0L6.272,7.879,2.561,4.167A1.5,1.5,0,0,0,0,5.228V16.5A5.507,5.507,0,0,0,5.5,22h13A5.507,5.507,0,0,0,24,16.5V5.228A1.5,1.5,0,0,0,23.074,3.842ZM21,16.5A2.5,2.5,0,0,1,18.5,19H5.5A2.5,2.5,0,0,1,3,16.5V8.849l2.212,2.212a1.5,1.5,0,0,0,2.121,0L12,6.394l4.667,4.667a1.5,1.5,0,0,0,2.121,0L21,8.849Z"
     id="path1"
     style="fill:#ffffff;fill-opacity:1" />
</svg>
