<?xml version="1.0" encoding="UTF-8" standalone="no"?>
<svg
   id="Layer_1"
   data-name="Layer 1"
   viewBox="0 0 24 24"
   width="512"
   height="512"
   version="1.1"
   sodipodi:docname="joystick.svg"
   inkscape:version="1.3.2 (091e20e, 2023-11-25, custom)"
   xmlns:inkscape="http://www.inkscape.org/namespaces/inkscape"
   xmlns:sodipodi="http://sodipodi.sourceforge.net/DTD/sodipodi-0.dtd"
   xmlns="http://www.w3.org/2000/svg"
   xmlns:svg="http://www.w3.org/2000/svg">
  <defs
     id="defs1" />
  <sodipodi:namedview
     id="namedview1"
     pagecolor="#ffffff"
     bordercolor="#111111"
     borderopacity="1"
     inkscape:showpageshadow="0"
     inkscape:pageopacity="0"
     inkscape:pagecheckerboard="1"
     inkscape:deskcolor="#d1d1d1"
     inkscape:zoom="2.2597656"
     inkscape:cx="256"
     inkscape:cy="256"
     inkscape:window-width="2560"
     inkscape:window-height="1369"
     inkscape:window-x="-8"
     inkscape:window-y="-8"
     inkscape:window-maximized="1"
     inkscape:current-layer="Layer_1" />
  <path
     d="m20.5,16h-1.5v-2h-3v2h-2.5v-6.254c2.023-.64,3.5-2.51,3.5-4.746,0-2.761-2.239-5-5-5s-5,2.239-5,5c0,2.235,1.477,4.105,3.5,4.746v6.254H3.5c-1.93,0-3.5,1.57-3.5,3.5v4.5h24v-4.5c0-1.93-1.57-3.5-3.5-3.5ZM12,3c1.103,0,2,.897,2,2s-.897,2-2,2-2-.897-2-2,.897-2,2-2Zm9,18H3v-1.5c0-.276.225-.5.5-.5h17c.275,0,.5.224.5.5v1.5Z"
     id="path1"
     style="fill:#ffffff;fill-opacity:1" />
</svg>
