<?xml version="1.0" encoding="UTF-8" standalone="no"?>
<svg
   id="Bold"
   viewBox="0 0 24 24"
   width="512"
   height="512"
   version="1.1"
   sodipodi:docname="shopping.svg"
   inkscape:version="1.3.2 (091e20e, 2023-11-25, custom)"
   xmlns:inkscape="http://www.inkscape.org/namespaces/inkscape"
   xmlns:sodipodi="http://sodipodi.sourceforge.net/DTD/sodipodi-0.dtd"
   xmlns="http://www.w3.org/2000/svg"
   xmlns:svg="http://www.w3.org/2000/svg">
  <defs
     id="defs2" />
  <sodipodi:namedview
     id="namedview2"
     pagecolor="#ffffff"
     bordercolor="#111111"
     borderopacity="1"
     inkscape:showpageshadow="0"
     inkscape:pageopacity="0"
     inkscape:pagecheckerboard="1"
     inkscape:deskcolor="#d1d1d1"
     inkscape:zoom="2.2910156"
     inkscape:cx="256"
     inkscape:cy="256"
     inkscape:window-width="2560"
     inkscape:window-height="1369"
     inkscape:window-x="-8"
     inkscape:window-y="-8"
     inkscape:window-maximized="1"
     inkscape:current-layer="Bold" />
  <circle
     cx="7"
     cy="22"
     r="2"
     id="circle1"
     style="fill:#ffffff;fill-opacity:1" />
  <circle
     cx="17"
     cy="22"
     r="2"
     id="circle2"
     style="fill:#ffffff;fill-opacity:1" />
  <path
     d="M22.984,6.018A3.675,3.675,0,0,0,20.364,5H5.654L5.391,2.938A3.328,3.328,0,0,0,2.087,0H1.5A1.5,1.5,0,0,0,0,1.5H0A1.5,1.5,0,0,0,1.5,3h.587a.331.331,0,0,1,.326.3l1.5,11.759A3.327,3.327,0,0,0,7.217,18H17.339a5.5,5.5,0,0,0,5.3-4.042l1.246-4.531A3.489,3.489,0,0,0,22.984,6.018ZM19.75,13.163A2.508,2.508,0,0,1,17.339,15H7.217a.329.329,0,0,1-.325-.3L6.037,8H20.514A.5.5,0,0,1,21,8.632Z"
     id="path2"
     style="fill:#ffffff;fill-opacity:1" />
</svg>
